<?xml version="1.0" encoding="utf-8"?>
<!-- Generator: Adobe Illustrator 25.2.1, SVG Export Plug-In . SVG Version: 6.00 Build 0)  -->
<svg version="1.1" id="레이어_1" xmlns="http://www.w3.org/2000/svg" xmlns:xlink="http://www.w3.org/1999/xlink" x="0px"
	 y="0px" viewBox="0 0 20 50" style="enable-background:new 0 0 20 50;" xml:space="preserve">
<style type="text/css">
	.st0{fill:none;stroke:#B1E000;stroke-width:0.5;stroke-miterlimit:10;}
	.st1{fill:none;stroke:#B301FA;stroke-width:0.5;stroke-miterlimit:10;}
	.st2{fill:#FF7100;}
</style>
<g id="opinion">
	<path class="st0" d="M13.6,17.2c-0.9,0.9-2.4,1.6-2.9,1.2c-0.5-0.5,0.1-2.3,1.3-3.3c0.9-0.7,2.3-1.1,2.7-0.6
		C15.1,15.1,14.3,16.4,13.6,17.2z"/>
	<path class="st0" d="M13.7,22.7c-0.9,0.9-2.4,1.6-2.9,1.2c-0.5-0.5,0.1-2.3,1.3-3.3c0.9-0.7,2.3-1.1,2.7-0.6
		C15.2,20.5,14.4,21.9,13.7,22.7z"/>
	<path class="st0" d="M13.7,28.2c-0.9,0.9-2.4,1.6-2.9,1.2c-0.5-0.5,0.1-2.3,1.3-3.3c0.9-0.7,2.3-1.1,2.7-0.6
		C15.2,26.1,14.4,27.5,13.7,28.2z"/>
</g>
<g id="issue">
	<g>
		<line class="st1" x1="10.3" y1="10.3" x2="10.3" y2="47.8"/>
	</g>
</g>
<g>
	<path class="st2" d="M10.5,3.8c1.3,0,2.3,1.1,2.3,2.3s-1.1,2.3-2.3,2.3S8.2,7.4,8.2,6.1S9.2,3.8,10.5,3.8 M10.5,3.5
		C9,3.5,7.9,4.7,7.9,6.1S9,8.7,10.5,8.7s2.6-1.2,2.6-2.6S12,3.5,10.5,3.5L10.5,3.5z"/>
</g>
<g>
	<path class="st2" d="M10.4,8.9c0.4,0,0.7,0.3,0.7,0.7s-0.3,0.7-0.7,0.7S9.8,9.9,9.8,9.6S10.1,8.9,10.4,8.9 M10.4,8.7
		c-0.5,0-0.9,0.4-0.9,0.9s0.4,0.9,0.9,0.9s0.9-0.4,0.9-0.9S11,8.7,10.4,8.7L10.4,8.7z"/>
</g>
<g>
	<path class="st2" d="M8.7,8.4c0.4,0,0.7,0.3,0.7,0.7S9.1,9.8,8.7,9.8S8,9.4,8,9.1S8.3,8.4,8.7,8.4 M8.7,8.2c-0.5,0-0.9,0.4-0.9,0.9
		S8.2,10,8.7,10s0.9-0.4,0.9-0.9C9.6,8.6,9.2,8.2,8.7,8.2L8.7,8.2z"/>
</g>
<g>
	<path class="st2" d="M7.5,7.2c0.4,0,0.7,0.3,0.7,0.7c0,0.4-0.3,0.7-0.7,0.7c-0.4,0-0.7-0.3-0.7-0.7C6.8,7.5,7.1,7.2,7.5,7.2
		 M7.5,6.9c-0.5,0-0.9,0.4-0.9,0.9c0,0.5,0.4,0.9,0.9,0.9s0.9-0.4,0.9-0.9C8.4,7.3,8,6.9,7.5,6.9L7.5,6.9z"/>
</g>
<g>
	<path class="st2" d="M7,5.4c0.4,0,0.7,0.3,0.7,0.7c0,0.4-0.3,0.7-0.7,0.7C6.7,6.7,6.4,6.4,6.4,6C6.4,5.7,6.7,5.4,7,5.4 M7,5.1
		c-0.5,0-0.9,0.4-0.9,0.9S6.5,7,7,7S8,6.6,8,6.1S7.5,5.1,7,5.1L7,5.1z"/>
</g>
<g>
	<path class="st2" d="M7.5,3.6c0.4,0,0.7,0.3,0.7,0.7c0,0.4-0.3,0.7-0.7,0.7c-0.4,0-0.7-0.3-0.7-0.7C6.8,3.9,7.2,3.6,7.5,3.6
		 M7.5,3.4C7,3.4,6.6,3.8,6.6,4.3S7,5.2,7.5,5.2s0.9-0.4,0.9-0.9S8,3.4,7.5,3.4L7.5,3.4z"/>
</g>
<g>
	<path class="st2" d="M8.9,2.4c0.4,0,0.7,0.3,0.7,0.7c0,0.4-0.3,0.7-0.7,0.7S8.2,3.4,8.2,3S8.5,2.4,8.9,2.4 M8.9,2.1
		C8.4,2.1,8,2.6,8,3.1S8.4,4,8.9,4s0.9-0.4,0.9-0.9S9.4,2.1,8.9,2.1L8.9,2.1z"/>
</g>
<g>
	<path class="st2" d="M12.2,8.4c0.4,0,0.7,0.3,0.7,0.7s-0.3,0.7-0.7,0.7s-0.7-0.3-0.7-0.7S11.8,8.4,12.2,8.4 M12.2,8.2
		c-0.5,0-0.9,0.4-0.9,0.9s0.4,0.9,0.9,0.9s0.9-0.4,0.9-0.9S12.7,8.2,12.2,8.2L12.2,8.2z"/>
</g>
<g>
	<path class="st2" d="M13.5,7.2c0.4,0,0.7,0.3,0.7,0.7c0,0.4-0.3,0.7-0.7,0.7s-0.6-0.3-0.6-0.7C12.8,7.5,13.1,7.2,13.5,7.2
		 M13.5,6.9c-0.5,0-0.9,0.4-0.9,0.9c0,0.5,0.4,0.9,0.9,0.9s0.9-0.4,0.9-0.9C14.4,7.3,14,6.9,13.5,6.9L13.5,6.9z"/>
</g>
<g>
	<path class="st2" d="M14,5.4c0.4,0,0.7,0.3,0.7,0.7S14.3,6.8,14,6.8s-0.7-0.3-0.7-0.7S13.6,5.4,14,5.4 M14,5.2
		c-0.5,0-0.9,0.4-0.9,0.9s0.4,0.9,0.9,0.9s0.9-0.4,0.9-0.9S14.5,5.2,14,5.2L14,5.2z"/>
</g>
<g>
	<path class="st2" d="M13.5,3.7c0.4,0,0.7,0.3,0.7,0.7c0,0.4-0.3,0.7-0.7,0.7s-0.6-0.3-0.6-0.7S13.1,3.7,13.5,3.7 M13.5,3.4
		c-0.5,0-0.9,0.4-0.9,0.9s0.4,0.9,0.9,0.9s0.9-0.4,0.9-0.9S14,3.4,13.5,3.4L13.5,3.4z"/>
</g>
<g>
	<path class="st2" d="M12.2,2.4c0.4,0,0.7,0.3,0.7,0.7c0,0.4-0.3,0.7-0.7,0.7S11.5,3.4,11.5,3S11.8,2.4,12.2,2.4 M12.2,2.1
		c-0.5,0-0.9,0.4-0.9,0.9S11.7,4,12.2,4s0.9-0.4,0.9-0.9S12.7,2.1,12.2,2.1L12.2,2.1z"/>
</g>
<g>
	<path class="st2" d="M10.6,1.9c0.4,0,0.7,0.3,0.7,0.7s-0.3,0.7-0.7,0.7S9.9,3,9.9,2.6S10.2,1.9,10.6,1.9 M10.6,1.7
		c-0.5,0-0.9,0.4-0.9,0.9s0.4,0.9,0.9,0.9s0.9-0.4,0.9-0.9S11.1,1.7,10.6,1.7L10.6,1.7z"/>
</g>
</svg>
