<?xml version="1.0" encoding="utf-8"?>
<!-- Generator: Adobe Illustrator 25.2.1, SVG Export Plug-In . SVG Version: 6.00 Build 0)  -->
<svg version="1.1" id="레이어_2" xmlns="http://www.w3.org/2000/svg" xmlns:xlink="http://www.w3.org/1999/xlink" x="0px"
	 y="0px" viewBox="0 0 1920 1080" style="enable-background:new 0 0 1920 1080;" xml:space="preserve">
<style type="text/css">
	.st0{fill:none;stroke:#B1E000;stroke-width:7;stroke-miterlimit:10;}
</style>
<g id="opinion">
	<path class="st0" d="M95.2,356.6c-27.1,27.1-72.5,48.9-87.3,34.9c-15.7-14.8,2.6-69.9,39.3-97.8c26.2-20.1,68.1-31.4,80.4-16.6
		C140.6,292.8,117.9,333.9,95.2,356.6z"/>
	<path class="st0" d="M97.8,520.8c-27.1,27.1-72.5,48.9-87.3,34.9c-15.7-14.8,2.6-69.9,39.3-97.8c26.2-20.1,68.1-31.4,80.4-16.6
		C143.3,456.1,121.4,497.2,97.8,520.8z"/>
	<path class="st0" d="M97.8,686.7c-27.1,27.1-72.5,48.9-87.3,34.9c-15.7-14.8,2.6-69.9,39.3-97.8c26.2-20.1,68.1-31.4,80.4-16.6
		C143.3,622.1,121.4,663.1,97.8,686.7z"/>
</g>
</svg>
