<?xml version="1.0" encoding="utf-8"?>
<!-- Generator: Adobe Illustrator 25.2.1, SVG Export Plug-In . SVG Version: 6.00 Build 0)  -->
<svg version="1.1" id="레이어_1" xmlns="http://www.w3.org/2000/svg" xmlns:xlink="http://www.w3.org/1999/xlink" x="0px"
	 y="0px" viewBox="0 0 50 150" style="enable-background:new 0 0 50 150;" xml:space="preserve">
<style type="text/css">
	.st0{fill:none;stroke:#B1E000;stroke-width:2;stroke-miterlimit:10;}
</style>
<path class="st0" d="M23.9,37.5C17.4,44,6.6,49.2,3,45.8c-3.8-3.5,0.6-16.7,9.4-23.4c6.3-4.8,16.3-7.5,19.2-4
	C34.8,22.2,29.4,32.1,23.9,37.5z"/>
<path class="st0" d="M24.3,76.8C17.8,83.3,7,88.5,3.4,85.1c-3.8-3.5,0.6-16.7,9.4-23.4c6.3-4.8,16.3-7.5,19.2-4
	C35.2,61.3,30,71.1,24.3,76.8z"/>
<path class="st0" d="M24.3,116.5C17.8,123,7,128.2,3.4,124.8c-3.8-3.5,0.6-16.7,9.4-23.4c6.3-4.8,16.3-7.5,19.2-4
	C35.2,101,30,110.8,24.3,116.5z"/>
</svg>
