<?xml version="1.0" encoding="utf-8"?>
<!-- Generator: Adobe Illustrator 25.2.1, SVG Export Plug-In . SVG Version: 6.00 Build 0)  -->
<svg version="1.1" id="레이어_1" xmlns="http://www.w3.org/2000/svg" xmlns:xlink="http://www.w3.org/1999/xlink" x="0px"
	 y="0px" viewBox="0 0 150 150" style="enable-background:new 0 0 150 150;" xml:space="preserve">
<style type="text/css">
	.st0{fill:#FF7100;}
</style>
<g id="레이어_2_1_">
	<g>
		<path class="st0" d="M76.6,37.4c20.5,0,37.3,16.8,37.3,37.3S97.1,112,76.6,112S39.3,95.2,39.3,74.7S56.1,37.4,76.6,37.4
			 M76.6,32.8c-23.3,0-42,18.7-42,42s18.7,42,42,42s42-18.7,42-42S99.9,32.8,76.6,32.8L76.6,32.8z"/>
	</g>
	<g>
		<path class="st0" d="M75.6,119.5c5.6,0,10.7,5.1,10.7,10.7c0,5.6-5.1,10.7-10.7,10.7s-10.7-5.1-10.7-10.7
			C64.9,124.6,70,119.5,75.6,119.5 M75.6,115.8c-8.4,0-14.9,6.5-14.9,14.9s6.5,14.9,14.9,14.9s14.9-6.5,14.9-14.9
			S84,115.8,75.6,115.8L75.6,115.8z"/>
	</g>
	<g>
		<path class="st0" d="M48.1,111.6c5.6,0,10.7,5.1,10.7,10.7S53.7,133,48.1,133s-10.7-5.1-10.7-10.7S42.1,111.6,48.1,111.6
			 M48.1,107.4c-8.4,0-14.9,6.5-14.9,14.9s6.5,14.9,14.9,14.9s14.9-6.5,14.9-14.9C62.6,113.9,56.1,107.4,48.1,107.4L48.1,107.4z"/>
	</g>
	<g>
		<path class="st0" d="M28.1,91.5c5.6,0,10.7,5.1,10.7,10.7S33.7,113,28.1,113s-10.7-5.1-10.7-10.7C17.3,96.2,22,91.5,28.1,91.5
			 M28.1,87.3c-8.4,0-14.9,6.5-14.9,14.9c0,8.4,6.5,14.9,14.9,14.9S43,110.6,43,102.2C42.5,93.8,36,87.3,28.1,87.3L28.1,87.3z"/>
	</g>
	<g>
		<path class="st0" d="M21.5,62.6c5.6,0,10.7,5.1,10.7,10.7c0,5.6-5.1,10.7-10.7,10.7s-10.7-5.1-10.7-10.7
			C10.8,67.7,16,62.6,21.5,62.6 M21.5,58.9c-8.4,0-14.9,6.5-14.9,14.9s6.5,14.9,14.9,14.9s14.9-6.5,14.9-14.9S29.5,58.9,21.5,58.9
			L21.5,58.9z"/>
	</g>
	<g>
		<path class="st0" d="M29,34.6c5.6,0,10.7,5.1,10.7,10.7S34.6,56.1,29,56.1s-10.7-5.1-10.7-10.7S23.4,34.6,29,34.6 M29,30.9
			c-8.4,0-14.9,6.5-14.9,14.9S20.6,60.7,29,60.7s14.9-6.5,14.9-14.9S37.4,30.9,29,30.9L29,30.9z"/>
	</g>
	<g>
		<path class="st0" d="M50.9,15c5.6,0,10.7,5.1,10.7,10.7c0,5.6-5.1,10.7-10.7,10.7s-10.7-5.1-10.7-10.7S45.3,15,50.9,15 M50.9,11.3
			c-8.4,0-14.9,6.5-14.9,14.9s6.5,14.9,14.9,14.9s14.9-6.5,14.9-14.9S59.3,11.3,50.9,11.3L50.9,11.3z"/>
	</g>
	<g>
		<path class="st0" d="M103.6,111.6c5.6,0,10.7,5.1,10.7,10.7s-5.1,10.7-10.7,10.7c-5.6,0-10.7-5.1-10.7-10.7S98,111.6,103.6,111.6
			 M103.6,107.4c-8.4,0-14.9,6.5-14.9,14.9s6.5,14.9,14.9,14.9s14.9-6.5,14.9-14.9S112,107.4,103.6,107.4L103.6,107.4z"/>
	</g>
	<g>
		<path class="st0" d="M124.1,91.5c5.6,0,10.7,5.1,10.7,10.7s-5.1,10.7-10.7,10.7c-5.6,0-10.3-5.1-10.3-11.2
			C113.9,96.2,118.6,91.5,124.1,91.5 M124.1,87.3c-8.4,0-14.9,6.5-14.9,14.9c0,8.4,6.5,14.9,14.9,14.9s14.9-6.5,14.9-14.9
			C139.1,93.8,132.5,87.3,124.1,87.3L124.1,87.3z"/>
	</g>
	<g>
		<path class="st0" d="M132.1,64c5.6,0,10.7,5.1,10.7,10.7c0,5.6-5.1,10.7-10.7,10.7s-10.7-5.1-10.7-10.7
			C121.3,69.1,126,64,132.1,64 M132.1,59.8c-8.4,0-14.9,6.5-14.9,14.9s6.5,14.9,14.9,14.9c8.4,0,14.9-6.5,14.9-14.9
			S140,59.8,132.1,59.8L132.1,59.8z"/>
	</g>
	<g>
		<path class="st0" d="M124.1,36c5.6,0,10.7,5.1,10.7,10.7s-5.1,10.7-10.7,10.7c-5.6,0-10.3-5.1-10.3-11.2S118.6,36,124.1,36
			 M124.1,31.8c-8.4,0-14.9,6.5-14.9,14.9s6.5,14.9,14.9,14.9s14.9-6.5,14.9-14.9S132.5,31.8,124.1,31.8L124.1,31.8z"/>
	</g>
	<g>
		<path class="st0" d="M103.6,15c5.6,0,10.7,5.1,10.7,10.7c0,5.6-5.1,10.7-10.7,10.7c-5.6,0-10.7-5.1-10.7-10.7S98,15,103.6,15
			 M103.6,11.3c-8.4,0-14.9,6.5-14.9,14.9s6.5,14.9,14.9,14.9s14.9-6.5,14.9-14.9S112,11.3,103.6,11.3L103.6,11.3z"/>
	</g>
	<g>
		<path class="st0" d="M77.5,8c5.6,0,10.7,5.1,10.7,10.7s-5.1,10.7-10.7,10.7s-10.7-5.1-10.7-10.7S71.4,8,77.5,8 M77.5,4.3
			c-8.4,0-14.9,6.5-14.9,14.9s6.5,14.9,14.9,14.9s14.9-6.5,14.9-14.9S85.4,4.3,77.5,4.3L77.5,4.3z"/>
	</g>
</g>
</svg>
