<?xml version="1.0" encoding="utf-8"?>
<!-- Generator: Adobe Illustrator 25.2.1, SVG Export Plug-In . SVG Version: 6.00 Build 0)  -->
<svg version="1.1" id="레이어_1" xmlns="http://www.w3.org/2000/svg" xmlns:xlink="http://www.w3.org/1999/xlink" x="0px"
	 y="0px" viewBox="0 0 150 150" style="enable-background:new 0 0 150 150;" xml:space="preserve">
<style type="text/css">
	.st0{fill:grey;}
</style>
<g id="레이어_2_1_">
	<g>
		<path class="st0" d="M74.8,35.1c21.9,0,39.9,17.8,39.9,39.6s-17.9,39.6-39.9,39.6S34.9,96.4,34.9,74.7S52.9,35.1,74.8,35.1
			 M74.8,30.2c-24.9,0-44.9,19.8-44.9,44.5s20,44.5,44.9,44.5s44.9-19.8,44.9-44.5S99.7,30.2,74.8,30.2L74.8,30.2z"/>
	</g>
	<g>
		<path class="st0" d="M73.7,122.2c6,0,11.4,5.4,11.4,11.3c0,5.9-5.4,11.3-11.4,11.3c-6,0-11.4-5.4-11.4-11.3
			C62.3,127.6,67.7,122.2,73.7,122.2 M73.7,118.2c-9,0-15.9,6.9-15.9,15.8s6.9,15.8,15.9,15.8s15.9-6.9,15.9-15.8
			S82.7,118.2,73.7,118.2L73.7,118.2z"/>
	</g>
	<g>
		<path class="st0" d="M44.3,113.8c6,0,11.4,5.4,11.4,11.3c0,5.9-5.4,11.3-11.4,11.3s-11.4-5.4-11.4-11.3S37.9,113.8,44.3,113.8
			 M44.3,109.3c-9,0-15.9,6.9-15.9,15.8s6.9,15.8,15.9,15.8s15.9-6.9,15.9-15.8C59.8,116.2,52.9,109.3,44.3,109.3L44.3,109.3z"/>
	</g>
	<g>
		<path class="st0" d="M23,92.5c6,0,11.4,5.4,11.4,11.3c0,5.9-5.4,11.5-11.4,11.5s-11.4-5.4-11.4-11.3C11.4,97.5,16.5,92.5,23,92.5
			 M23,88c-9,0-15.9,6.9-15.9,15.8S14,119.6,23,119.6s15.9-6.9,15.9-15.8C38.4,94.9,31.4,88,23,88L23,88z"/>
	</g>
	<g>
		<path class="st0" d="M15.9,61.8c6,0,11.4,5.4,11.4,11.3s-5.4,11.3-11.4,11.3S4.5,79.1,4.5,73.2S10,61.8,15.9,61.8 M15.9,57.9
			C6.9,57.9,0,64.8,0,73.7s6.9,15.8,15.9,15.8s15.9-6.9,15.9-15.8S24.5,57.9,15.9,57.9L15.9,57.9z"/>
	</g>
	<g>
		<path class="st0" d="M23.9,32.1c6,0,11.4,5.4,11.4,11.3s-5.4,11.5-11.4,11.5s-11.4-5.4-11.4-11.3S17.9,32.1,23.9,32.1 M23.9,28.2
			C15,28.2,8,35.1,8,44S15,59.8,23.9,59.8S39.9,52.9,39.9,44S32.9,28.2,23.9,28.2L23.9,28.2z"/>
	</g>
	<g>
		<path class="st0" d="M47.3,11.3c6,0,11.4,5.4,11.4,11.3S53.3,34,47.3,34s-11.4-5.4-11.4-11.3S41.3,11.3,47.3,11.3 M47.3,7.4
			c-9,0-15.9,6.9-15.9,15.8S38.4,39,47.3,39s15.9-6.9,15.9-15.8S56.3,7.4,47.3,7.4L47.3,7.4z"/>
	</g>
	<g>
		<path class="st0" d="M103.6,113.8c6,0,11.4,5.4,11.4,11.3c0,5.9-5.4,11.3-11.4,11.3s-11.4-5.4-11.4-11.3S97.6,113.8,103.6,113.8
			 M103.6,109.3c-9,0-15.9,6.9-15.9,15.8s6.9,15.8,15.9,15.8s15.9-6.9,15.9-15.8S112.6,109.3,103.6,109.3L103.6,109.3z"/>
	</g>
	<g>
		<path class="st0" d="M125.5,92.5c6,0,11.4,5.4,11.4,11.3c0,5.9-5.4,11.3-11.4,11.3c-6,0-11-5.4-11-11.9
			C114.6,97.5,119.7,92.5,125.5,92.5 M125.5,88c-9,0-15.9,6.9-15.9,15.8s6.9,15.8,15.9,15.8s15.9-6.9,15.9-15.8
			C141.6,94.9,134.5,88,125.5,88L125.5,88z"/>
	</g>
	<g>
		<path class="st0" d="M134.1,63.3c6,0,11.4,5.4,11.4,11.3S140.1,86,134.1,86s-11.4-5.4-11.4-11.3C122.5,68.7,127.6,63.3,134.1,63.3
			 M134.1,58.9c-9,0-15.9,6.9-15.9,15.8s6.9,15.8,15.9,15.8c9,0,15.9-6.9,15.9-15.8S142.5,58.9,134.1,58.9L134.1,58.9z"/>
	</g>
	<g>
		<path class="st0" d="M125.5,33.6c6,0,11.4,5.4,11.4,11.3s-5.4,11.3-11.4,11.3c-6,0-11-5.4-11-11.9S119.7,33.6,125.5,33.6
			 M125.5,29.2c-9,0-15.9,6.9-15.9,15.8s6.9,15.8,15.9,15.8s15.9-6.9,15.9-15.8S134.5,29.2,125.5,29.2L125.5,29.2z"/>
	</g>
	<g>
		<path class="st0" d="M103.6,11.3c6,0,11.4,5.4,11.4,11.3S109.6,34,103.6,34s-11.4-5.4-11.4-11.3S97.6,11.3,103.6,11.3 M103.6,7.4
			c-9,0-15.9,6.9-15.9,15.8S94.7,39,103.6,39s15.9-6.9,15.9-15.8S112.6,7.4,103.6,7.4L103.6,7.4z"/>
	</g>
	<g>
		<path class="st0" d="M75.7,3.9c6,0,11.4,5.4,11.4,11.3s-5.4,11.3-11.4,11.3s-11.4-5.4-11.4-11.3S69.2,3.9,75.7,3.9 M75.7,0
			c-9,0-15.9,6.9-15.9,15.8s6.9,15.8,15.9,15.8s15.9-6.9,15.9-15.8S84.2,0,75.7,0L75.7,0z"/>
	</g>
</g>
</svg>
